<svg xmlns="http://www.w3.org/2000/svg" version="1.1" xmlns:xlink="http://www.w3.org/1999/xlink" xmlns:svgjs="http://svgjs.dev/svgjs" width="2000" height="2242" viewBox="0 0 2000 2242"><g transform="matrix(1,0,0,1,-3.1151183800621993,0)"><svg viewBox="0 0 321 360" data-background-color="#444444" preserveAspectRatio="xMidYMid meet" height="2242" width="2000" xmlns="http://www.w3.org/2000/svg" xmlns:xlink="http://www.w3.org/1999/xlink"><g id="tight-bounds" transform="matrix(1,0,0,1,0.5000234999999975,0)"><svg viewBox="0 0 320 360" height="360" width="320"><g><svg></svg></g><g><svg viewBox="0 0 320 360" height="360" width="320"><g><path transform="translate(-74.99272,-51.79039) scale(4.65793,4.65793)" d="M20.6 59.9l0.8 1-0.4-1.3c-0.1-0.6-0.8 0.1-0.4 0.3M21.5 59.3c0.3 0.5 0.6 1 0.6 1.5 0 0.7 0.6 1 1.1 1.2-0.7-0.8-1.1-3-1.7-2.7M59.9 16.9c1.7 0 3.3-0.2 5.1 0.2 4.4 1.1 8.1 3.3 10.6 6.4l7 11.2c0.3 2.8 0.9 5.9 0.8 9.3 0.7 0 0.6-1 1.4-1.2-0.8 2-1.2 4.5-1.4 7.4-0.5-1.6 0-4 0.1-5.3-0.7 1.1-1.1 0.3-1.1-0.2 0.1-0.8-0.3-0.7-0.6-1-1.1-1-1.8-2.1-2.6-3.8 0.5-1.3 0.6-3.2-1-4.2-0.5-0.3-1.1-0.8-1.4-1.6-0.4-1.1-1.1-2.4-0.9-4.1 0.1-0.5-1.5 1.1-2.4 0.4-3.9-2.7-7.8-5.8-12.5-8.4-2.5 0-4.3-0.9-5.2-2-0.8-1-0.2-2.3 1-2.4 0.7 0 1.5-0.2 2.1 0.2 0.1-0.4 0.5-0.9 1-0.9M50 14.6l0.2 0.1c1 0.2 1.5 1.6 2.6 1.1 0 0.7 0.1 1.4-0.1 1.9-0.3 0.8-1.2 0.8-1.9 0.8-6.7-0.4-10.6 2.4-14.7 4.8-1.1 0.7-2.3 1.2-3.2 2.1-4.3 4-9 7.7-10.1 15.1l-0.9 8.2c-0.1 0.9-1.1 1.8-0.9 2.9l0.7 4.9c-0.7-0.7-1.1 0.2-0.9 0.6 0.1 0.3 0.5 1.3 1.1 0.4 0.8 1.5 1.6 4.4 2.7 5.7 3.4 4 7.8 7.6 11.4 11.2 0.9-0.2 1.6-0.2 1.8-0.8 0.3 0.6-0.3 1.2-0.8 1.3 1.6 1 3.4 1.9 5.8 2.1 3.1 0.2 6 0.7 8.7 1.4 1.4-0.4 2.8-0.6 4.3-0.7 0.5 0 0.8-0.8 1.4-1l0.1-1c0.6 0.9 0.5-0.3 0.1-0.9 0.7 0.6 0.9 1.1 1.2 1.5 0-0.3 0.8-1.4 0.8-0.1l0.2-1.3c0.3-0.2 0.4 1.1 0.7 0.2 0.3-0.9 0.9-0.2 1.5-0.5-0.2 0.4-0.1 1.2 0.6 0.7l0.8-0.7c0.5 1.2 1.3 0.7 1.7 0.5 4.4-2.8 8.8-6.1 13-9.4l-0.1 1.3 0.5-1.6c0.5 0.5 0.9 0.1 1.1-0.2 0.6-1 1.4-2 2.7-2.9-1.6 4.3-3.5 7.7-5.9 10.5l-1 1.2c0 0.7-0.2 1.6-1 1.7-0.4 0.1-1.2-0.2-1.8 0.4-0.3 0.4 0.7 1.2-0.1 0.6-0.7-0.5-1.4 0-2.2 0.2-0.6 0.2 0.4 0.8 0.6 1.2 0.2 0.4 0.4 0.8 0.3 1.3l-1.1-1.2c-1.3 0.7-2.1 2-3.2 3-0.5 0.4-0.3 1.1-0.3 1.7-0.7 0-1.5-0.2-1.9 0.2-0.3 0.4-0.2 1-0.2 1.6-1-0.1-1.1-1.6-2-1.3-0.9 0.2-1.9 0.3-2.7 0.8 0.6 1.2-1 0.5-0.8 0.7-1.5-0.9-2.8-1.6-4.4-1-3.4-1.1-7.6-0.6-10.7-0.2 0-0.5 0.1-1-0.1-1.1-0.2 0.5-0.8 0.3-0.7 0.3-1.9-1.3-3.8-2.1-5.8-3.2-1.8 0.2-3.5-0.7-4-1.2-1.4-1.3-3-0.6-4.3-0.9-2.8-0.7-3.8-3.6-4.1-5.6-0.2-1-1-1.4-1.3-1.3-1.3-4.2-3.3-8-4.9-11.9-0.4-1-0.3-2-0.3-3.1 0.5 0.2 1 0.1 0.9-0.6-0.5-3.3-1.7-5.8-3-8.2 0.7-3.4 0.8-7.4 2.4-10.4 1.4-2.7 4-4.1 5.8-6.4 0.6-0.8 0.6-1.9 1.2-2.6 2-2 4-4.1 6.2-5.9 1-0.8 2.2 0 3.7-0.3 0.5-1.8 2.5-3.4 4.4-2.9 0.8 0.2 2.4-1.9 2.9-2.1 0.8-0.3 0.4 0.8 0.4 1.5 1.9-1.5 4.5-2.3 6.9-3.2" fill="#ffffff" fill-rule="nonzero" stroke="none" stroke-width="1" stroke-linecap="butt" stroke-linejoin="miter" stroke-miterlimit="10" stroke-dasharray="" stroke-dashoffset="0" font-family="none" font-weight="none" font-size="none" text-anchor="none" style="mix-blend-mode: normal" data-fill-palette-color="tertiary"></path></g><g transform="matrix(1,0,0,1,64,114.88720416599193)"><svg viewBox="0 0 192 130.22559166801614" height="130.22559166801614" width="192"><g><svg viewBox="0 0 192 130.22559166801614" height="130.22559166801614" width="192"><g><svg viewBox="0 0 192 130.22559166801614" height="130.22559166801614" width="192"><g transform="matrix(1,0,0,1,0,77.88365256064257)"><svg viewBox="0 0 192 52.34193910737358" height="52.34193910737358" width="192"><g id="textblocktransform"><svg viewBox="0 0 192 52.34193910737358" height="52.34193910737358" width="192" id="textblock"><g><svg viewBox="0 0 192 38.013573601684996" height="38.013573601684996" width="192"><g transform="matrix(1,0,0,1,0,0)"><svg width="192" viewBox="2.25 -34 213.63 42.3" height="38.013573601684996" data-palette-color="#ffffff"><path d="M2.25-15.4L2.25-15.4Q2.25-19.75 3.13-22.8 4-25.85 5.83-27.8 7.65-29.75 10.48-30.63 13.3-31.5 17.2-31.5L17.2-31.5Q21.1-31.5 23.95-30.63 26.8-29.75 28.63-27.8 30.45-25.85 31.33-22.8 32.2-19.75 32.2-15.4L32.2-15.4Q32.2-11.25 31.4-8.28 30.6-5.3 28.95-3.35 27.3-1.4 24.75-0.43 22.2 0.55 18.7 0.7L18.7 0.7 18.7 3.9Q18.7 4.95 19.18 5.35 19.65 5.75 20.35 5.75L20.35 5.75Q21.25 5.75 21.58 5.2 21.9 4.65 21.9 4.05L21.9 4.05 21.9 2.5 24.8 2.5 24.8 4Q24.8 4.55 24.63 5.28 24.45 6 23.98 6.68 23.5 7.35 22.63 7.83 21.75 8.3 20.35 8.3L20.35 8.3Q17.95 8.3 16.88 7.13 15.8 5.95 15.8 3.9L15.8 3.9 15.8 0.7Q12.25 0.55 9.7-0.43 7.15-1.4 5.5-3.33 3.85-5.25 3.05-8.22 2.25-11.2 2.25-15.4ZM15.8-6.9L18.7-6.9 18.7-1.8Q19.9-1.85 20.7-2.05L20.7-2.05Q21.1-2.15 21.4-2.2L21.4-2.2Q21.8-4.05 22.1-6.15L22.1-6.15Q22.35-7.95 22.6-10.33 22.85-12.7 22.85-15.4L22.85-15.4Q22.85-18.2 22.6-20.6 22.35-23 22.1-24.75L22.1-24.75Q21.8-26.8 21.4-28.55L21.4-28.55Q20.9-28.65 20.3-28.75L20.3-28.75Q19.75-28.85 18.98-28.93 18.2-29 17.2-29L17.2-29Q16.2-29 15.45-28.93 14.7-28.85 14.15-28.75L14.15-28.75Q13.55-28.65 13.05-28.55L13.05-28.55Q12.6-26.7 12.3-24.6L12.3-24.6Q12.05-22.8 11.83-20.43 11.6-18.05 11.6-15.4L11.6-15.4Q11.6-12.55 11.83-10.15 12.05-7.75 12.3-6L12.3-6Q12.6-3.95 13.05-2.2L13.05-2.2Q13.35-2.15 13.75-2.05L13.75-2.05Q14.1-1.95 14.6-1.88 15.1-1.8 15.8-1.75L15.8-1.75 15.8-6.9ZM35.2-19.05L35.2-21.55 38.15-21.55 45.7-23 45.7-2.75Q45.8-2.7 46-2.65L46-2.65Q46.2-2.6 47.1-2.6L47.1-2.6Q48.15-2.6 48.95-3.03 49.75-3.45 50.35-4 50.95-4.55 51.35-5.1 51.75-5.65 51.9-5.95L51.9-5.95 51.9-22.45 59.8-22.45 59.8-2.5 60.45-2.5Q60.9-2.5 61.35-2.55L61.35-2.55 62.45-2.65 62.45-0.25Q61.55-0.1 60.7 0L60.7 0Q60 0.1 59.2 0.15 58.4 0.2 57.9 0.2L57.9 0.2Q56.6 0.2 55.65-0.08 54.7-0.35 54.02-0.8 53.35-1.25 52.9-1.83 52.45-2.4 52.25-2.95L52.25-2.95Q52.15-2.8 51.7-2.25 51.25-1.7 50.32-1.13 49.4-0.55 47.97-0.1 46.55 0.35 44.45 0.35L44.45 0.35Q43.3 0.35 42.12 0.15 40.95-0.05 39.97-0.58 39-1.1 38.4-2 37.8-2.9 37.8-4.35L37.8-4.35 37.8-19.05 35.2-19.05ZM64.95-19.55L64.95-22.05 67.9-22.05 75.8-23.25 75.8-2.55 78.75-2.55 78.75 0 64.95 0 64.95-2.55 67.9-2.55 67.9-19.55 64.95-19.55ZM67.9-29.85L67.9-29.85Q67.9-31.95 68.8-32.98 69.7-34 71.85-34L71.85-34Q74.1-34 74.95-32.98 75.8-31.95 75.8-29.85L75.8-29.85Q75.8-27.7 74.87-26.73 73.95-25.75 71.85-25.75L71.85-25.75Q69.7-25.75 68.8-26.73 67.9-27.7 67.9-29.85ZM101.04-22.45L101.04-21.5 90.79-2.4 94.49-2.4Q94.74-3.2 95.22-4.25 95.69-5.3 96.52-6.23 97.34-7.15 98.59-7.8 99.84-8.45 101.64-8.45L101.64-8.45 101.64 0 81.49 0 81.49-0.9 92.14-20.05 88.04-20.05Q87.89-19.3 87.52-18.38 87.14-17.45 86.42-16.63 85.69-15.8 84.52-15.25 83.34-14.7 81.54-14.7L81.54-14.7 81.54-22.45 101.04-22.45ZM128.94-30.75L128.94-20.55Q125.84-20.55 124.04-21.75 122.24-22.95 121.32-24.45 120.39-25.95 120.09-27.3 119.79-28.65 119.79-29L119.79-29Q118.94-28.95 118.27-28.9 117.59-28.85 117.14-28.75L117.14-28.75Q116.59-28.65 116.19-28.55L116.19-28.55Q115.74-26.8 115.44-24.7L115.44-24.7Q115.19-22.9 114.97-20.5 114.74-18.1 114.74-15.4L114.74-15.4Q114.74-12.65 114.97-10.28 115.19-7.9 115.44-6.1L115.44-6.1Q115.74-4 116.19-2.2L116.19-2.2Q116.49-2.1 116.99-2L116.99-2Q117.79-1.85 119.54-1.85L119.54-1.85Q121.19-1.85 122.57-2.23 123.94-2.6 124.94-3.43 125.94-4.25 126.52-5.58 127.09-6.9 127.09-8.75L127.09-8.75 127.09-10.3 129.99-10.3 129.99-8.9Q129.99-6.35 129.14-4.53 128.29-2.7 126.84-1.53 125.39-0.35 123.52 0.2 121.64 0.75 119.54 0.75L119.54 0.75Q115.94 0.75 113.29-0.13 110.64-1 108.87-2.95 107.09-4.9 106.24-7.98 105.39-11.05 105.39-15.4L105.39-15.4Q105.39-19.75 106.27-22.8 107.14-25.85 108.97-27.8 110.79-29.75 113.62-30.63 116.44-31.5 120.34-31.5L120.34-31.5Q122.04-31.5 123.59-31.38 125.14-31.25 126.34-31.1L126.34-31.1Q127.74-30.9 128.94-30.75L128.94-30.75ZM133.24-19.05L133.24-21.55 136.19-21.55 143.74-23 143.74-19.8Q143.79-19.95 144.11-20.43 144.44-20.9 145.16-21.43 145.89-21.95 147.06-22.38 148.24-22.8 150.04-22.8L150.04-22.8Q151.14-22.8 151.76-22.75 152.39-22.7 152.74-22.65L152.74-22.65Q153.14-22.6 153.24-22.55L153.24-22.55 153.24-12.9Q151.44-12.9 150.24-13.6 149.04-14.3 148.29-15.35 147.54-16.4 147.14-17.55 146.74-18.7 146.59-19.6L146.59-19.6Q146.14-19.35 145.74-18.93 145.34-18.5 145.01-18.03 144.69-17.55 144.44-17.13 144.19-16.7 144.09-16.45L144.09-16.45 144.09-2.55 147.04-2.55 147.04 0 133.24 0 133.24-2.55 136.19-2.55 136.19-19.05 133.24-19.05ZM176.39-11.15L176.39-2.5 177.04-2.5Q177.49-2.5 177.94-2.55L177.94-2.55 179.04-2.65 179.04-0.25Q178.14-0.1 177.29 0L177.29 0Q176.59 0.1 175.79 0.15 174.99 0.2 174.49 0.2L174.49 0.2Q172.04 0.2 170.79-0.7 169.54-1.6 168.99-2.65L168.99-2.65Q167.89-1.25 166.46-0.43 165.04 0.4 163.19 0.4L163.19 0.4Q159.79 0.4 158.14-0.88 156.49-2.15 156.49-5.3L156.49-5.3Q156.49-6.4 156.51-7.4 156.54-8.4 156.64-9.15L156.64-9.15Q156.74-10.05 156.84-10.75L156.84-10.75 168.44-13.6Q168.39-15.05 168.34-16.28 168.29-17.5 168.24-18.35L168.24-18.35Q168.14-19.35 168.09-20.15L168.09-20.15Q167.94-20.2 167.64-20.25L167.64-20.25Q167.39-20.3 166.89-20.35 166.39-20.4 165.69-20.4L165.69-20.4Q165.24-20.4 164.84-20.38 164.44-20.35 164.04-20.3L164.04-20.3Q163.89-19.6 163.54-18.63 163.19-17.65 162.44-16.78 161.69-15.9 160.46-15.28 159.24-14.65 157.34-14.65L157.34-14.65 157.34-22.2Q158.94-22.35 160.59-22.5L160.59-22.5Q162.04-22.6 163.69-22.7 165.34-22.8 166.89-22.8L166.89-22.8Q170.14-22.8 172.01-22.25 173.89-21.7 174.86-20.35 175.84-19 176.11-16.75 176.39-14.5 176.39-11.15L176.39-11.15ZM164.79-2.3L164.79-2.3Q165.79-2.55 166.71-3.58 167.64-4.6 168.49-6.05L168.49-6.05 168.49-11.35 164.69-10.3Q164.59-9.5 164.54-8.68 164.49-7.85 164.49-7.05L164.49-7.05Q164.49-6.05 164.51-5.2 164.54-4.35 164.64-3.7L164.64-3.7Q164.69-2.95 164.79-2.3ZM198.43-32.15L198.43-24.45Q196.38-24.45 195.08-25.15 193.78-25.85 193.03-26.8 192.28-27.75 191.98-28.7 191.68-29.65 191.63-30.2L191.63-30.2 189.93-30.2Q189.83-29.85 189.78-29.3L189.78-29.3Q189.63-28.3 189.63-26.3L189.63-26.3Q189.63-24.55 190.53-23.5 191.43-22.45 193.03-22.45L193.03-22.45 196.93-22.45 196.93-19.9 191.63-19.9 191.63-2.55 194.58-2.55 194.58 0 180.78 0 180.78-2.55 183.73-2.55 183.73-24.4Q183.73-26.1 184.23-27.6 184.73-29.1 185.76-30.2 186.78-31.3 188.36-31.93 189.93-32.55 192.03-32.55L192.03-32.55Q193.28-32.55 194.96-32.43 196.63-32.3 198.43-32.15L198.43-32.15ZM201.48-4.65L201.48-24.75 209.38-26.9 209.38-22.45 215.38-22.45 215.38-19.95 209.38-19.95 209.38-2.5 210.43-2.5Q213.33-2.5 213.33-6.9L213.33-6.9 215.88-6.9Q215.88-5.3 215.71-4 215.53-2.7 214.76-1.75 213.98-0.8 212.46-0.3 210.93 0.2 208.23 0.2L208.23 0.2Q206.38 0.2 205.08-0.23 203.78-0.65 202.98-1.35 202.18-2.05 201.83-2.9 201.48-3.75 201.48-4.65L201.48-4.65Z" opacity="1" transform="matrix(1,0,0,1,0,0)" fill="#ffffff" class="wordmark-text-0" data-fill-palette-color="primary" id="text-0"></path></svg></g></svg></g><g transform="matrix(1,0,0,1,0,43.560666315937276)"><svg viewBox="0 0 192 8.781272791436301" height="8.781272791436301" width="192"><g transform="matrix(1,0,0,1,0,0)"><svg width="192" viewBox="2.95 -41.5 1037.6399999999999 47.46" height="8.781272791436301" data-palette-color="#00d1cd"><path d="M34.91-7.2L37.45-3.39Q31.15 2.05 22.49 2.05L22.49 2.05Q13.53 2.05 7.79-4.44L7.79-4.44Q2.95-9.94 2.95-18.9L2.95-18.9Q2.95-26.27 6.64-31.76L6.64-31.76Q7.86-33.59 9.4-35.03L9.4-35.03Q14.79-40.04 22.19-40.04L22.19-40.04Q26.78-40.04 30.52-38.43L30.52-38.43Q33.45-37.16 36.55-34.4L36.55-34.4 33.72-31.05Q30.81-34.03 27.78-35.08L27.78-35.08Q25.39-35.94 22.44-35.94L22.44-35.94Q15.94-35.94 12.06-31.23L12.06-31.23Q7.96-26.27 7.96-18.82L7.96-18.82Q7.96-12.45 11.16-8.01L11.16-8.01Q13.06-5.37 15.97-3.78L15.97-3.78Q19.04-2.1 22.44-2.1L22.44-2.1Q29.79-2.1 34.91-7.2L34.91-7.2ZM49.09-28.25L48.85-20.09 49.05-20.09Q52.15-28.96 58.64-28.96L58.64-28.96Q60.67-28.96 62.4-28.15L62.4-28.15 60.98-23.95Q59.71-24.51 58.01-24.51L58.01-24.51Q51.8-24.51 49.29-14.16L49.29-14.16 49.29 1.25 44.7 1.25 44.7-28.25 49.09-28.25ZM82.49-17.41L85.91-17.41 85.91-18.36Q85.91-21.88 83.98-23.61L83.98-23.61Q82.22-25.2 78.56-25.2L78.56-25.2Q73.19-25.2 68.7-21.75L68.7-21.75 66.69-25Q71.92-28.96 78.63-28.96L78.63-28.96Q84.74-28.96 87.84-25.66L87.84-25.66Q90.4-22.92 90.4-18.14L90.4-18.14 90.4-7.54Q90.4-1.93 92.16 1.25L92.16 1.25 87.76 1.25Q86.81-0.78 86.35-3.96L86.35-3.96 86.2-3.96Q84.81-1.46 82.1 0.29L82.1 0.29Q79.34 2.1 75.29 2.1L75.29 2.1Q71.06 2.1 68.28-0.39L68.28-0.39Q65.35-3.03 65.35-7.1L65.35-7.1Q65.35-11.99 69.62-14.72L69.62-14.72Q73.85-17.41 82.49-17.41L82.49-17.41ZM85.91-10.74L85.91-13.94 82.76-13.94Q70.06-13.94 70.06-7.15L70.06-7.15Q70.06-4.96 71.43-3.49L71.43-3.49Q73.09-1.76 76-1.76L76-1.76Q79.76-1.76 82.59-4.15L82.59-4.15Q85.91-6.93 85.91-10.74L85.91-10.74ZM95.7-28.25L103.24-28.25 103.24-30.54Q103.24-35.13 105.1-37.77L105.1-37.77Q107.76-41.5 112.83-41.5L112.83-41.5Q116.45-41.5 119.67-39.55L119.67-39.55 117.89-36.35Q115.62-37.74 113.2-37.74L113.2-37.74Q109.71-37.74 108.34-34.55L108.34-34.55Q107.73-33.08 107.73-30.59L107.73-30.59 107.73-28.25 117.42-28.25 117.42-24.76 107.73-24.76 107.73 1.25 103.24 1.25 103.24-24.76 95.7-24.76 95.7-28.25ZM127.6-34.96L132.05-37.3 132.05-28.25 141.18-28.25 141.18-24.76 132.05-24.76 132.05-6.4Q132.05-4.3 132.41-3.39L132.41-3.39Q133.05-1.81 134.98-1.81L134.98-1.81Q137.51-1.81 140.08-3.56L140.08-3.56 141.35-0.32Q138.1 1.86 134.24 1.86L134.24 1.86Q127.6 1.86 127.6-5.81L127.6-5.81 127.6-24.76 120.64-24.76 120.64-28.25 127.6-28.25 127.6-34.96ZM175.94-17.55L160.73-39.26 166.42-39.26 178.18-21.41 189.93-39.26 195.61-39.26 180.43-17.55 180.43 1.25 175.94 1.25 175.94-17.55ZM213.24-29L213.24-29Q219.27-29 223.44-24.9L223.44-24.9Q227.86-20.58 227.86-13.53L227.86-13.53Q227.86-9.4 226.35-6.1L226.35-6.1Q224.4-1.88 220.42 0.29L220.42 0.29Q217.12 2.1 213.14 2.1L213.14 2.1Q205.96 2.1 201.76-3.2L201.76-3.2Q198.47-7.35 198.47-13.53L198.47-13.53Q198.47-21.58 204.08-25.95L204.08-25.95Q208.01-29 213.24-29ZM213.12-25.24L213.12-25.24Q208.65-25.24 205.74-21.53L205.74-21.53Q203.23-18.33 203.23-13.45L203.23-13.45Q203.23-9.99 204.52-7.32L204.52-7.32Q205.74-4.76 207.97-3.3L207.97-3.3Q210.31-1.76 213.19-1.76L213.19-1.76Q216.68-1.76 219.34-4.03L219.34-4.03Q223.1-7.28 223.1-13.48L223.1-13.48Q223.1-18.73 220.2-22.02L220.2-22.02Q217.34-25.24 213.12-25.24ZM234.99-9.59L234.99-28.25 239.53-28.25 239.53-10.21Q239.53-2.08 245.88-2.08L245.88-2.08Q248.39-2.08 250.81-3.64L250.81-3.64Q253.98-5.71 255.69-9.59L255.69-9.59 255.69-28.25 260.33-28.25 260.33 1.25 255.94 1.25 255.94-4.15Q253.72-1.15 250.69 0.42L250.69 0.42Q247.98 1.81 245.15 1.81L245.15 1.81Q239.56 1.81 236.89-1.95L236.89-1.95Q234.99-4.64 234.99-9.59L234.99-9.59ZM274.29-28.25L274.05-20.09 274.25-20.09Q277.35-28.96 283.84-28.96L283.84-28.96Q285.87-28.96 287.6-28.15L287.6-28.15 286.18-23.95Q284.91-24.51 283.21-24.51L283.21-24.51Q277-24.51 274.49-14.16L274.49-14.16 274.49 1.25 269.9 1.25 269.9-28.25 274.29-28.25ZM309.47 1.25L309.47-39.26 314.06-39.26 314.06-19.85 332.66-39.26 338.72-39.26 322.16-22.41 340.96 1.25 334.81 1.25 319.02-19.6 314.06-14.79 314.06 1.25 309.47 1.25ZM346.67-28.25L351.12-28.25 351.12-22.95Q353.36-25.88 356.29-27.39L356.29-27.39Q359-28.81 361.79-28.81L361.79-28.81Q365.45-28.81 368.06-27L368.06-27Q372.02-24.24 372.02-17.41L372.02-17.41 372.02 1.25 367.47 1.25 367.47-16.85Q367.47-24.85 361.2-24.85L361.2-24.85Q358.78-24.85 356.51-23.49L356.51-23.49Q353.1-21.48 351.26-17.5L351.26-17.5 351.26 1.25 346.67 1.25 346.67-28.25ZM393.94-29L393.94-29Q399.97-29 404.14-24.9L404.14-24.9Q408.56-20.58 408.56-13.53L408.56-13.53Q408.56-9.4 407.05-6.1L407.05-6.1Q405.09-1.88 401.11 0.29L401.11 0.29Q397.82 2.1 393.84 2.1L393.84 2.1Q386.66 2.1 382.46-3.2L382.46-3.2Q379.17-7.35 379.17-13.53L379.17-13.53Q379.17-21.58 384.78-25.95L384.78-25.95Q388.71-29 393.94-29ZM393.82-25.24L393.82-25.24Q389.35-25.24 386.44-21.53L386.44-21.53Q383.93-18.33 383.93-13.45L383.93-13.45Q383.93-9.99 385.22-7.32L385.22-7.32Q386.44-4.76 388.66-3.3L388.66-3.3Q391.01-1.76 393.89-1.76L393.89-1.76Q397.38-1.76 400.04-4.03L400.04-4.03Q403.8-7.28 403.8-13.48L403.8-13.48Q403.8-18.73 400.9-22.02L400.9-22.02Q398.04-25.24 393.82-25.24ZM421.23 1.71L411.68-28.25 416.49-28.25 421.47-10.94Q422.57-7.18 423.28-4.1L423.28-4.1 423.43-4.1Q424.65-8.72 425.43-10.94L425.43-10.94 430.82-26.15 434.93-26.15 440.35-10.94Q441.01-9.08 442.18-4.66L442.18-4.66 442.32-4.1 442.49-4.1Q443.13-6.98 444.28-10.94L444.28-10.94 449.28-28.25 454.09-28.25 444.55 1.71 440.69 1.71 434.68-14.65Q433.73-17.24 432.97-21L432.97-21 432.78-21Q431.92-16.92 431.09-14.65L431.09-14.65 425.09 1.71 421.23 1.71ZM460.36-2.91L460.36-41.5 464.95-41.5 464.95-3.44Q464.95-2.49 465.86-2.49L465.86-2.49 469.76-2.49 469.25 1.25 464.61 1.25Q460.36 1.25 460.36-2.91L460.36-2.91ZM502.06-14.31L502.06-13.01 479.33-13.01Q479.43-8.37 481.5-5.62L481.5-5.62Q484.31-1.88 489.66-1.88L489.66-1.88Q495.3-1.88 499.13-6.76L499.13-6.76 501.96-3.76Q497.1 2.08 489.44 2.08L489.44 2.08Q481.8 2.08 477.69-3.13L477.69-3.13Q474.52-7.15 474.52-13.23L474.52-13.23Q474.52-18.46 476.82-22.34L476.82-22.34Q479.06-26.1 482.92-27.83L482.92-27.83Q485.6-29.05 488.63-29.05L488.63-29.05Q495.66-29.05 499.45-23.44L499.45-23.44Q502.06-19.56 502.06-14.31L502.06-14.31ZM479.53-16.5L497.27-16.5Q496.98-20.12 494.98-22.41L494.98-22.41Q492.49-25.29 488.53-25.29L488.53-25.29Q485.65-25.29 483.29-23.46L483.29-23.46Q480.16-21.07 479.53-16.5L479.53-16.5ZM532.01-23.61L532.01-41.5 536.55-41.5 536.55 1.39 532.21 1.39 532.21-2.91Q531.11-1.27 529.67-0.22L529.67-0.22Q526.47 2.05 522.2 2.05L522.2 2.05Q517.71 2.05 514.26-0.46L514.26-0.46Q508.45-4.69 508.45-13.48L508.45-13.48Q508.45-18.55 510.63-22.31L510.63-22.31Q513.02-26.42 517.32-28.08L517.32-28.08Q519.64-28.96 522.08-28.96L522.08-28.96Q526.23-28.96 529.45-26.46L529.45-26.46Q530.96-25.29 532.01-23.61L532.01-23.61ZM532.01-7.91L532.01-18.6Q528.3-25.15 522.93-25.15L522.93-25.15Q519.61-25.15 517.05-22.92L517.05-22.92Q513.26-19.68 513.26-13.38L513.26-13.38Q513.26-9.08 515.07-6.15L515.07-6.15Q517.76-1.76 522.96-1.76L522.96-1.76Q526.28-1.76 529.03-4.05L529.03-4.05Q530.74-5.49 532.01-7.91L532.01-7.91ZM566.87-28.25L570.41-28.25 570.41-6.69Q570.41-0.46 567.26 2.66L567.26 2.66Q563.94 5.96 557.62 5.96L557.62 5.96Q550.42 5.96 545.46 2.15L545.46 2.15 547.68-1.15Q551.62 2.15 557.65 2.15L557.65 2.15Q562.75 2.15 564.8-1.27L564.8-1.27Q565.92-3.13 565.92-5.76L565.92-5.76 565.92-9.11Q564.63-7.4 562.5-6.37L562.5-6.37Q559.94-5.15 557.33-5.15L557.33-5.15Q553.2-5.15 549.91-7.3L549.91-7.3Q544.63-10.69 544.63-17.04L544.63-17.04Q544.63-22.66 549.17-26.2L549.17-26.2Q552.76-28.96 557.4-28.96L557.4-28.96Q562.5-28.96 566.12-25.66L566.12-25.66 566.87-28.25ZM565.92-13.75L565.92-20.7Q563.21-25.15 557.72-25.15L557.72-25.15Q555.11-25.15 553.1-23.93L553.1-23.93Q549.39-21.68 549.39-17.07L549.39-17.07Q549.39-14.04 551.3-11.79L551.3-11.79Q553.67-8.96 557.65-8.96L557.65-8.96Q561.8-8.96 564.55-11.87L564.55-11.87Q565.31-12.65 565.92-13.75L565.92-13.75ZM605.54-14.31L605.54-13.01 582.81-13.01Q582.91-8.37 584.99-5.62L584.99-5.62Q587.79-1.88 593.14-1.88L593.14-1.88Q598.78-1.88 602.61-6.76L602.61-6.76 605.45-3.76Q600.59 2.08 592.92 2.08L592.92 2.08Q585.28 2.08 581.18-3.13L581.18-3.13Q578-7.15 578-13.23L578-13.23Q578-18.46 580.3-22.34L580.3-22.34Q582.55-26.1 586.4-27.83L586.4-27.83Q589.09-29.05 592.12-29.05L592.12-29.05Q599.15-29.05 602.93-23.44L602.93-23.44Q605.54-19.56 605.54-14.31L605.54-14.31ZM583.01-16.5L600.76-16.5Q600.47-20.12 598.46-22.41L598.46-22.41Q595.97-25.29 592.02-25.29L592.02-25.29Q589.14-25.29 586.77-23.46L586.77-23.46Q583.64-21.07 583.01-16.5L583.01-16.5ZM636.37 1.71L626.83-28.25 631.64-28.25 636.62-10.94Q637.72-7.18 638.42-4.1L638.42-4.1 638.57-4.1Q639.79-8.72 640.57-10.94L640.57-10.94 645.97-26.15 650.07-26.15 655.49-10.94Q656.15-9.08 657.32-4.66L657.32-4.66 657.47-4.1 657.64-4.1Q658.27-6.98 659.42-10.94L659.42-10.94 664.43-28.25 669.23-28.25 659.69 1.71 655.83 1.71 649.83-14.65Q648.87-17.24 648.12-21L648.12-21 647.92-21Q647.07-16.92 646.24-14.65L646.24-14.65 640.23 1.71 636.37 1.71ZM675.26-34.55L675.26-39.99 680.76-39.99 680.76-34.55 675.26-34.55ZM675.7 1.25L675.7-28.25 680.29-28.25 680.29 1.25 675.7 1.25ZM693.62-34.96L698.06-37.3 698.06-28.25 707.19-28.25 707.19-24.76 698.06-24.76 698.06-6.4Q698.06-4.3 698.43-3.39L698.43-3.39Q699.06-1.81 700.99-1.81L700.99-1.81Q703.53-1.81 706.09-3.56L706.09-3.56 707.36-0.32Q704.12 1.86 700.26 1.86L700.26 1.86Q693.62 1.86 693.62-5.81L693.62-5.81 693.62-24.76 686.66-24.76 686.66-28.25 693.62-28.25 693.62-34.96ZM714.32 1.25L714.32-41.5 718.86-41.5 718.86-23Q720.89-25.73 723.6-27.25L723.6-27.25Q726.45-28.81 729.38-28.81L729.38-28.81Q735.02-28.81 737.66-25.02L737.66-25.02Q739.61-22.24 739.61-17.41L739.61-17.41 739.61 1.25 735.02 1.25 735.02-16.85Q735.02-20.61 733.8-22.46L733.8-22.46Q732.24-24.85 728.72-24.85L728.72-24.85Q726.33-24.85 724.01-23.46L724.01-23.46Q720.67-21.44 718.86-17.5L718.86-17.5 718.86 1.25 714.32 1.25ZM802.94 1.05L800.25 4.44Q797.03 2.47 793.1-0.76L793.1-0.76Q788.78 2.05 782.99 2.05L782.99 2.05Q776.33 2.05 771.42-1.81L771.42-1.81Q767.05-5.27 765.17-11.06L765.17-11.06Q764-14.72 764-18.99L764-18.99Q764-27.61 768.73-33.42L768.73-33.42Q774.13-40.04 783.09-40.04L783.09-40.04Q791.76-40.04 797.15-33.74L797.15-33.74Q802.16-27.86 802.16-19.04L802.16-19.04Q802.16-9.5 796.3-3.39L796.3-3.39Q799.5-0.93 802.94 1.05L802.94 1.05ZM779.65-10.4L782.09-13.35Q787.7-9.91 792.81-6.15L792.81-6.15Q797.2-10.79 797.2-18.95L797.2-18.95Q797.2-24.29 795.22-28.32L795.22-28.32Q793.68-31.45 791.12-33.4L791.12-33.4Q787.63-36.08 783.09-36.08L783.09-36.08Q778.5-36.08 774.96-33.35L774.96-33.35Q768.9-28.66 768.9-18.97L768.9-18.97Q768.9-13.13 771.32-8.89L771.32-8.89Q773.13-5.66 776.08-3.83L776.08-3.83Q779.26-1.86 783.21-1.86L783.21-1.86Q787.07-1.86 789.9-3.66L789.9-3.66 789.29-4.08Q783.53-8.13 779.65-10.4L779.65-10.4ZM810.5-9.59L810.5-28.25 815.04-28.25 815.04-10.21Q815.04-2.08 821.39-2.08L821.39-2.08Q823.91-2.08 826.32-3.64L826.32-3.64Q829.5-5.71 831.21-9.59L831.21-9.59 831.21-28.25 835.85-28.25 835.85 1.25 831.45 1.25 831.45-4.15Q829.23-1.15 826.2 0.42L826.2 0.42Q823.49 1.81 820.66 1.81L820.66 1.81Q815.07 1.81 812.41-1.95L812.41-1.95Q810.5-4.64 810.5-9.59L810.5-9.59ZM845.95-34.55L845.95-39.99 851.44-39.99 851.44-34.55 845.95-34.55ZM846.39 1.25L846.39-28.25 850.98-28.25 850.98 1.25 846.39 1.25ZM860.13-24.54L860.13-28.25 881.89-28.25 881.89-25.2 869.24-8.62Q867.26-6.01 864.38-2.76L864.38-2.76 864.38-2.56 882.94-2.56 882.94 1.25 858.74 1.25 858.74-2 871.58-18.6Q873.95-21.63 876.29-24.34L876.29-24.34 876.29-24.54 860.13-24.54ZM920.6-7.2L923.14-3.39Q916.84 2.05 908.18 2.05L908.18 2.05Q899.22 2.05 893.48-4.44L893.48-4.44Q888.65-9.94 888.65-18.9L888.65-18.9Q888.65-26.27 892.33-31.76L892.33-31.76Q893.55-33.59 895.09-35.03L895.09-35.03Q900.49-40.04 907.88-40.04L907.88-40.04Q912.47-40.04 916.21-38.43L916.21-38.43Q919.14-37.16 922.24-34.4L922.24-34.4 919.41-31.05Q916.5-34.03 913.47-35.08L913.47-35.08Q911.08-35.94 908.13-35.94L908.13-35.94Q901.63-35.94 897.75-31.23L897.75-31.23Q893.65-26.27 893.65-18.82L893.65-18.82Q893.65-12.45 896.85-8.01L896.85-8.01Q898.75-5.37 901.66-3.78L901.66-3.78Q904.73-2.1 908.13-2.1L908.13-2.1Q915.48-2.1 920.6-7.2L920.6-7.2ZM934.79-28.25L934.54-20.09 934.74-20.09Q937.84-28.96 944.33-28.96L944.33-28.96Q946.36-28.96 948.09-28.15L948.09-28.15 946.68-23.95Q945.41-24.51 943.7-24.51L943.7-24.51Q937.5-24.51 934.98-14.16L934.98-14.16 934.98 1.25 930.39 1.25 930.39-28.25 934.79-28.25ZM968.18-17.41L971.6-17.41 971.6-18.36Q971.6-21.88 969.67-23.61L969.67-23.61Q967.91-25.2 964.25-25.2L964.25-25.2Q958.88-25.2 954.39-21.75L954.39-21.75 952.39-25Q957.61-28.96 964.32-28.96L964.32-28.96Q970.43-28.96 973.53-25.66L973.53-25.66Q976.09-22.92 976.09-18.14L976.09-18.14 976.09-7.54Q976.09-1.93 977.85 1.25L977.85 1.25 973.46 1.25Q972.5-0.78 972.04-3.96L972.04-3.96 971.89-3.96Q970.5-1.46 967.79 0.29L967.79 0.29Q965.03 2.1 960.98 2.1L960.98 2.1Q956.76 2.1 953.97-0.39L953.97-0.39Q951.04-3.03 951.04-7.1L951.04-7.1Q951.04-11.99 955.32-14.72L955.32-14.72Q959.54-17.41 968.18-17.41L968.18-17.41ZM971.6-10.74L971.6-13.94 968.45-13.94Q955.75-13.94 955.75-7.15L955.75-7.15Q955.75-4.96 957.12-3.49L957.12-3.49Q958.78-1.76 961.69-1.76L961.69-1.76Q965.45-1.76 968.28-4.15L968.28-4.15Q971.6-6.93 971.6-10.74L971.6-10.74ZM981.39-28.25L988.93-28.25 988.93-30.54Q988.93-35.13 990.79-37.77L990.79-37.77Q993.45-41.5 998.53-41.5L998.53-41.5Q1002.14-41.5 1005.36-39.55L1005.36-39.55 1003.58-36.35Q1001.31-37.74 998.89-37.74L998.89-37.74Q995.4-37.74 994.03-34.55L994.03-34.55Q993.42-33.08 993.42-30.59L993.42-30.59 993.42-28.25 1003.12-28.25 1003.12-24.76 993.42-24.76 993.42 1.25 988.93 1.25 988.93-24.76 981.39-24.76 981.39-28.25ZM1013.29-34.96L1017.74-37.3 1017.74-28.25 1026.87-28.25 1026.87-24.76 1017.74-24.76 1017.74-6.4Q1017.74-4.3 1018.1-3.39L1018.1-3.39Q1018.74-1.81 1020.67-1.81L1020.67-1.81Q1023.21-1.81 1025.77-3.56L1025.77-3.56 1027.04-0.32Q1023.79 1.86 1019.93 1.86L1019.93 1.86Q1013.29 1.86 1013.29-5.81L1013.29-5.81 1013.29-24.76 1006.34-24.76 1006.34-28.25 1013.29-28.25 1013.29-34.96ZM1035.53-9.3L1034.58-39.26 1040.29-39.26 1039.34-9.3 1035.53-9.3ZM1034.29 1.25L1034.29-5.05 1040.59-5.05 1040.59 1.25 1034.29 1.25Z" opacity="1" transform="matrix(1,0,0,1,0,0)" fill="#00d1cd" class="slogan-text-1" data-fill-palette-color="secondary" id="text-1"></path></svg></g></svg></g></svg></g></svg></g><g transform="matrix(1,0,0,1,59.49966139654119,0)"><svg viewBox="0 0 73.00067720691762 72.33655984639029" height="72.33655984639029" width="73.00067720691762"><g><svg xmlns="http://www.w3.org/2000/svg" viewBox="2 4 58.237563040678204 57.70775183713975" x="0" y="0" height="72.33655984639029" width="73.00067720691762" class="icon-icon-0" data-fill-palette-color="accent" id="icon-0"><g fill="#00d1cd" data-fill-palette-color="accent"><rect x="10" y="43" width="14" height="2" fill="#00d1cd" data-fill-palette-color="accent"></rect><rect x="10" y="31" width="14" height="2" fill="#00d1cd" data-fill-palette-color="accent"></rect><rect x="10" y="47" width="14" height="2" fill="#00d1cd" data-fill-palette-color="accent"></rect><rect x="10" y="35" width="14" height="2" fill="#00d1cd" data-fill-palette-color="accent"></rect><rect x="8" y="51" width="18" height="2" fill="#00d1cd" data-fill-palette-color="accent"></rect><rect x="10" y="39" width="14" height="2" fill="#00d1cd" data-fill-palette-color="accent"></rect><rect x="8" y="27" width="18" height="2" fill="#00d1cd" data-fill-palette-color="accent"></rect><path d="M60 44V42H51.981A10.6 10.6 0 0 0 52.149 44Z" fill="#00d1cd" data-fill-palette-color="accent"></path><path d="M30 42V44H50.112A12.4 12.4 0 0 1 49.982 42Z" fill="#00d1cd" data-fill-palette-color="accent"></path><rect x="31" y="51.586" width="2" height="2.828" transform="translate(-28.104 38.151) rotate(-45)" fill="#00d1cd" data-fill-palette-color="accent"></rect><rect x="37.982" y="48.25" width="3.536" height="2" transform="translate(-23.183 42.532) rotate(-45)" fill="#00d1cd" data-fill-palette-color="accent"></rect><polygon points="38.275 58.725 39.972 58.386 38.614 57.028 38.275 58.725" fill="#00d1cd" data-fill-palette-color="accent"></polygon><polygon points="48.372 54.685 48.819 52 46.135 52 48.372 54.685" fill="#00d1cd" data-fill-palette-color="accent"></polygon><path d="M60 6V4H24.974A4.95 4.95 0 0 1 25.9 6Z" fill="#00d1cd" data-fill-palette-color="accent"></path><path d="M11 4H4V6H13.816A3 3 0 0 0 11 4" fill="#00d1cd" data-fill-palette-color="accent"></path><path d="M16 18.919L19.375 16.219A1 1 0 0 1 20.625 16.219L24 18.919V7A3 3 0 0 0 21 4H15A4.98 4.98 0 0 1 16 7Z" fill="#00d1cd" data-fill-palette-color="accent"></path><rect x="7.586" y="58" width="2.828" height="2" transform="translate(-39.083 23.645) rotate(-45)" fill="#00d1cd" data-fill-palette-color="accent"></rect><rect x="19.5" y="57.379" width="2" height="4.243" transform="translate(-36.069 31.923) rotate(-45)" fill="#00d1cd" data-fill-palette-color="accent"></rect><path d="M33 16A3 3 0 1 0 33.344 21.965L37.092 30.085 38.908 29.248 35.144 21.092A3 3 0 0 0 33 16M33 20A1 1 0 1 1 34 19 1 1 0 0 1 33 20" fill="#00d1cd" data-fill-palette-color="accent"></path><path d="M46 18A3 3 0 1 0 42.228 20.887L43.008 27.124 44.992 26.876 44.224 20.733A3 3 0 0 0 46 18M43 19A1 1 0 1 1 44 18 1 1 0 0 1 43 19" fill="#00d1cd" data-fill-palette-color="accent"></path><path d="M6 41V37H9V35H5A1 1 0 0 0 4 36V40H2V42H5A1 1 0 0 0 6 41" fill="#00d1cd" data-fill-palette-color="accent"></path><path d="M56.654 51.244A12.58 12.58 0 0 1 52.108 43.837L50.134 44.163A14.5 14.5 0 0 0 55.346 52.756C58.457 55.446 58.268 56.513 58.198 56.7 58.053 57.091 57.158 58 51.998 58V60C55.511 60 59.217 59.691 60.071 57.4 60.688 55.747 59.6 53.792 56.654 51.244" fill="#00d1cd" data-fill-palette-color="accent"></path><path d="M51.97 42.012A11.5 11.5 0 0 1 52.143 40.171L50.2 39.834A19.2 19.2 0 0 1 53.435 32.424L55.057 33.581C55.097 33.524 55.14 33.473 55.181 33.417A16.8 16.8 0 0 0 52.181 40H57.961A12.9 12.9 0 0 0 55.361 33.173C55.498 32.989 55.634 32.801 55.775 32.625 57.089 30.982 57.517 29.401 57.046 27.925A6.3 6.3 0 0 0 53.517 24.519L53.987 23.813A3 3 0 0 0 55 24 3 3 0 1 0 52 21 2.96 2.96 0 0 0 52.439 22.539L48.5 28.445 50.164 29.555 48.831 31.555 47.167 30.445 48.476 28.481A12.9 12.9 0 0 0 39.009 29.468L40.909 33.581 39.093 34.419 37.3 30.543A13 13 0 0 0 32.038 40H34.058C34.195 38.564 34.667 35.919 36.293 34.293L37.707 35.707A7.64 7.64 0 0 0 36.065 40H50.149A14 14 0 0 0 49.97 41.988ZM55 20A1 1 0 1 1 54 21 1 1 0 0 1 55 20M52.4 26.206C53.378 26.612 54.793 27.411 55.15 28.537A3.16 3.16 0 0 1 54.221 31.375C54.004 31.647 53.792 31.933 53.581 32.222 53.731 32.014 53.881 31.817 54.009 31.646A13 13 0 0 0 50.409 29.194ZM43 38H41V36H43ZM44 32H42V30H44ZM49 36H47V34H49Z" fill="#00d1cd" data-fill-palette-color="accent"></path><rect x="2" y="44" width="7" height="2" fill="#00d1cd" data-fill-palette-color="accent"></rect></g></svg></g></svg></g><g></g></svg></g></svg></g></svg></g></svg></g><defs></defs></svg><rect width="320" height="360" fill="none" stroke="none" visibility="hidden"></rect></g></svg></g></svg>